<mxfile host="app.diagrams.net" modified="2021-10-19T17:01:33.713Z" agent="5.0 (Macintosh; Intel Mac OS X 10_15_7) AppleWebKit/605.1.15 (KHTML, like Gecko) Version/15.0 Safari/605.1.15" etag="gisVhiUFs1lGsy2Euvg-" version="15.5.5" type="github">
  <diagram id="mZWbNvW8niZrceUeuNt3" name="Page-1">
    <mxGraphModel dx="2222" dy="1981" grid="1" gridSize="10" guides="1" tooltips="1" connect="1" arrows="1" fold="1" page="1" pageScale="1" pageWidth="827" pageHeight="1169" math="0" shadow="0">
      <root>
        <mxCell id="0" />
        <mxCell id="1" parent="0" />
        <mxCell id="_D5-4NInQl8luj4E8wgI-42" style="edgeStyle=orthogonalEdgeStyle;rounded=0;orthogonalLoop=1;jettySize=auto;html=1;entryX=0;entryY=0.5;entryDx=0;entryDy=0;fontSize=14;fontColor=#000000;targetPerimeterSpacing=6;" edge="1" parent="1" source="_D5-4NInQl8luj4E8wgI-1" target="_D5-4NInQl8luj4E8wgI-3">
          <mxGeometry relative="1" as="geometry" />
        </mxCell>
        <mxCell id="_D5-4NInQl8luj4E8wgI-43" style="edgeStyle=orthogonalEdgeStyle;rounded=0;orthogonalLoop=1;jettySize=auto;html=1;exitX=1;exitY=0.5;exitDx=0;exitDy=0;fontSize=14;fontColor=#000000;targetPerimeterSpacing=6;" edge="1" parent="1" source="_D5-4NInQl8luj4E8wgI-1" target="_D5-4NInQl8luj4E8wgI-44">
          <mxGeometry relative="1" as="geometry">
            <mxPoint x="440" y="650" as="targetPoint" />
          </mxGeometry>
        </mxCell>
        <mxCell id="_D5-4NInQl8luj4E8wgI-1" value="Transportation" style="ellipse;whiteSpace=wrap;html=1;labelBackgroundColor=none;fontSize=14;align=center;opacity=80;fontStyle=1;fillColor=#f8cecc;strokeColor=#b85450;" vertex="1" parent="1">
          <mxGeometry x="110" y="240" width="120" height="70" as="geometry" />
        </mxCell>
        <mxCell id="_D5-4NInQl8luj4E8wgI-2" value="Good example of human/machine interaction" style="text;html=1;strokeColor=none;fillColor=none;align=center;verticalAlign=middle;whiteSpace=wrap;rounded=0;labelBackgroundColor=none;fontSize=14;fontColor=#000000;opacity=80;" vertex="1" parent="1">
          <mxGeometry x="95" y="320" width="150" height="40" as="geometry" />
        </mxCell>
        <mxCell id="_D5-4NInQl8luj4E8wgI-5" style="edgeStyle=orthogonalEdgeStyle;rounded=0;orthogonalLoop=1;jettySize=auto;html=1;entryX=0.5;entryY=1;entryDx=0;entryDy=0;fontSize=14;fontColor=#000000;targetPerimeterSpacing=6;" edge="1" parent="1" source="_D5-4NInQl8luj4E8wgI-3" target="_D5-4NInQl8luj4E8wgI-4">
          <mxGeometry relative="1" as="geometry" />
        </mxCell>
        <mxCell id="_D5-4NInQl8luj4E8wgI-30" style="edgeStyle=orthogonalEdgeStyle;rounded=0;orthogonalLoop=1;jettySize=auto;html=1;entryX=0;entryY=0.5;entryDx=0;entryDy=0;fontSize=14;fontColor=#000000;targetPerimeterSpacing=6;" edge="1" parent="1" source="_D5-4NInQl8luj4E8wgI-3" target="_D5-4NInQl8luj4E8wgI-29">
          <mxGeometry relative="1" as="geometry" />
        </mxCell>
        <mxCell id="_D5-4NInQl8luj4E8wgI-3" value="Driving" style="ellipse;whiteSpace=wrap;html=1;labelBackgroundColor=none;fontSize=14;align=center;opacity=80;fontStyle=1;fillColor=#f8cecc;strokeColor=#b85450;" vertex="1" parent="1">
          <mxGeometry x="414" y="140" width="120" height="80" as="geometry" />
        </mxCell>
        <mxCell id="_D5-4NInQl8luj4E8wgI-8" style="edgeStyle=orthogonalEdgeStyle;rounded=0;orthogonalLoop=1;jettySize=auto;html=1;exitX=0;exitY=0.5;exitDx=0;exitDy=0;entryX=1;entryY=0.5;entryDx=0;entryDy=0;fontSize=14;fontColor=#000000;targetPerimeterSpacing=6;" edge="1" parent="1" source="_D5-4NInQl8luj4E8wgI-4" target="_D5-4NInQl8luj4E8wgI-6">
          <mxGeometry relative="1" as="geometry" />
        </mxCell>
        <mxCell id="_D5-4NInQl8luj4E8wgI-11" style="edgeStyle=orthogonalEdgeStyle;rounded=0;orthogonalLoop=1;jettySize=auto;html=1;exitX=1;exitY=0.5;exitDx=0;exitDy=0;entryX=0;entryY=0.5;entryDx=0;entryDy=0;fontSize=14;fontColor=#000000;targetPerimeterSpacing=6;" edge="1" parent="1" source="_D5-4NInQl8luj4E8wgI-4" target="_D5-4NInQl8luj4E8wgI-10">
          <mxGeometry relative="1" as="geometry" />
        </mxCell>
        <mxCell id="_D5-4NInQl8luj4E8wgI-12" style="edgeStyle=orthogonalEdgeStyle;rounded=0;orthogonalLoop=1;jettySize=auto;html=1;exitX=0.5;exitY=0;exitDx=0;exitDy=0;entryX=0.5;entryY=1;entryDx=0;entryDy=0;fontSize=14;fontColor=#000000;targetPerimeterSpacing=6;" edge="1" parent="1" source="_D5-4NInQl8luj4E8wgI-4" target="_D5-4NInQl8luj4E8wgI-9">
          <mxGeometry relative="1" as="geometry" />
        </mxCell>
        <mxCell id="_D5-4NInQl8luj4E8wgI-4" value="3 main tasks" style="rounded=1;whiteSpace=wrap;html=1;labelBackgroundColor=none;fontSize=14;align=center;opacity=80;fillColor=#dae8fc;strokeColor=#6c8ebf;" vertex="1" parent="1">
          <mxGeometry x="414" y="60" width="120" height="40" as="geometry" />
        </mxCell>
        <mxCell id="_D5-4NInQl8luj4E8wgI-16" style="edgeStyle=orthogonalEdgeStyle;rounded=0;orthogonalLoop=1;jettySize=auto;html=1;exitX=0;exitY=0.5;exitDx=0;exitDy=0;entryX=0.5;entryY=0;entryDx=0;entryDy=0;fontSize=14;fontColor=#000000;targetPerimeterSpacing=6;" edge="1" parent="1" source="_D5-4NInQl8luj4E8wgI-6" target="_D5-4NInQl8luj4E8wgI-15">
          <mxGeometry relative="1" as="geometry" />
        </mxCell>
        <mxCell id="_D5-4NInQl8luj4E8wgI-17" style="edgeStyle=orthogonalEdgeStyle;rounded=0;orthogonalLoop=1;jettySize=auto;html=1;entryX=0.5;entryY=1;entryDx=0;entryDy=0;fontSize=14;fontColor=#000000;targetPerimeterSpacing=6;" edge="1" parent="1" source="_D5-4NInQl8luj4E8wgI-6" target="_D5-4NInQl8luj4E8wgI-14">
          <mxGeometry relative="1" as="geometry" />
        </mxCell>
        <mxCell id="_D5-4NInQl8luj4E8wgI-6" value="Strategical" style="rounded=1;whiteSpace=wrap;html=1;labelBackgroundColor=none;fontSize=14;align=center;opacity=80;fillColor=#fff2cc;strokeColor=#d6b656;" vertex="1" parent="1">
          <mxGeometry x="260" y="65" width="110" height="30" as="geometry" />
        </mxCell>
        <mxCell id="_D5-4NInQl8luj4E8wgI-26" style="edgeStyle=orthogonalEdgeStyle;rounded=0;orthogonalLoop=1;jettySize=auto;html=1;exitX=0.5;exitY=0;exitDx=0;exitDy=0;entryX=0.5;entryY=1;entryDx=0;entryDy=0;fontSize=14;fontColor=#000000;targetPerimeterSpacing=6;" edge="1" parent="1" source="_D5-4NInQl8luj4E8wgI-9" target="_D5-4NInQl8luj4E8wgI-25">
          <mxGeometry relative="1" as="geometry" />
        </mxCell>
        <mxCell id="_D5-4NInQl8luj4E8wgI-28" style="edgeStyle=orthogonalEdgeStyle;rounded=0;orthogonalLoop=1;jettySize=auto;html=1;exitX=0.5;exitY=0;exitDx=0;exitDy=0;entryX=0.5;entryY=1;entryDx=0;entryDy=0;fontSize=14;fontColor=#000000;targetPerimeterSpacing=6;" edge="1" parent="1" source="_D5-4NInQl8luj4E8wgI-9" target="_D5-4NInQl8luj4E8wgI-27">
          <mxGeometry relative="1" as="geometry" />
        </mxCell>
        <mxCell id="_D5-4NInQl8luj4E8wgI-9" value="Control" style="rounded=1;whiteSpace=wrap;html=1;labelBackgroundColor=none;fontSize=14;align=center;opacity=80;fillColor=#fff2cc;strokeColor=#d6b656;" vertex="1" parent="1">
          <mxGeometry x="419" width="110" height="30" as="geometry" />
        </mxCell>
        <mxCell id="_D5-4NInQl8luj4E8wgI-20" style="edgeStyle=orthogonalEdgeStyle;rounded=0;orthogonalLoop=1;jettySize=auto;html=1;entryX=0;entryY=0.5;entryDx=0;entryDy=0;fontSize=14;fontColor=#000000;targetPerimeterSpacing=6;" edge="1" parent="1" source="_D5-4NInQl8luj4E8wgI-10" target="_D5-4NInQl8luj4E8wgI-19">
          <mxGeometry relative="1" as="geometry" />
        </mxCell>
        <mxCell id="_D5-4NInQl8luj4E8wgI-23" style="edgeStyle=orthogonalEdgeStyle;rounded=0;orthogonalLoop=1;jettySize=auto;html=1;exitX=1;exitY=0.5;exitDx=0;exitDy=0;entryX=0;entryY=0.5;entryDx=0;entryDy=0;fontSize=14;fontColor=#000000;targetPerimeterSpacing=6;" edge="1" parent="1" source="_D5-4NInQl8luj4E8wgI-10" target="_D5-4NInQl8luj4E8wgI-21">
          <mxGeometry relative="1" as="geometry" />
        </mxCell>
        <mxCell id="_D5-4NInQl8luj4E8wgI-24" style="edgeStyle=orthogonalEdgeStyle;rounded=0;orthogonalLoop=1;jettySize=auto;html=1;exitX=1;exitY=0.5;exitDx=0;exitDy=0;entryX=0;entryY=0.5;entryDx=0;entryDy=0;fontSize=14;fontColor=#000000;targetPerimeterSpacing=6;" edge="1" parent="1" source="_D5-4NInQl8luj4E8wgI-10" target="_D5-4NInQl8luj4E8wgI-22">
          <mxGeometry relative="1" as="geometry" />
        </mxCell>
        <mxCell id="_D5-4NInQl8luj4E8wgI-10" value="Tactical" style="rounded=1;whiteSpace=wrap;html=1;labelBackgroundColor=none;fontSize=14;align=center;opacity=80;fillColor=#fff2cc;strokeColor=#d6b656;" vertex="1" parent="1">
          <mxGeometry x="570" y="65" width="110" height="30" as="geometry" />
        </mxCell>
        <mxCell id="_D5-4NInQl8luj4E8wgI-13" value="before" style="text;html=1;strokeColor=none;fillColor=none;align=center;verticalAlign=middle;whiteSpace=wrap;rounded=0;labelBackgroundColor=none;fontSize=14;fontColor=#000000;opacity=80;" vertex="1" parent="1">
          <mxGeometry x="285" y="40" width="60" height="30" as="geometry" />
        </mxCell>
        <mxCell id="_D5-4NInQl8luj4E8wgI-14" value="Route choice" style="text;html=1;strokeColor=none;fillColor=none;align=center;verticalAlign=middle;whiteSpace=wrap;rounded=0;labelBackgroundColor=none;fontSize=14;fontColor=#000000;opacity=80;" vertex="1" parent="1">
          <mxGeometry x="150" y="20" width="90" height="30" as="geometry" />
        </mxCell>
        <mxCell id="_D5-4NInQl8luj4E8wgI-15" value="Travel time" style="text;html=1;strokeColor=none;fillColor=none;align=center;verticalAlign=middle;whiteSpace=wrap;rounded=0;labelBackgroundColor=none;fontSize=14;fontColor=#000000;opacity=80;" vertex="1" parent="1">
          <mxGeometry x="145" y="110" width="100" height="30" as="geometry" />
        </mxCell>
        <mxCell id="_D5-4NInQl8luj4E8wgI-18" value="during" style="text;html=1;strokeColor=none;fillColor=none;align=center;verticalAlign=middle;whiteSpace=wrap;rounded=0;labelBackgroundColor=none;fontSize=14;fontColor=#000000;opacity=80;" vertex="1" parent="1">
          <mxGeometry x="595" y="40" width="60" height="30" as="geometry" />
        </mxCell>
        <mxCell id="_D5-4NInQl8luj4E8wgI-19" value="Speed" style="text;html=1;strokeColor=none;fillColor=none;align=center;verticalAlign=middle;whiteSpace=wrap;rounded=0;labelBackgroundColor=none;fontSize=14;fontColor=#000000;opacity=80;" vertex="1" parent="1">
          <mxGeometry x="720" y="10" width="60" height="30" as="geometry" />
        </mxCell>
        <mxCell id="_D5-4NInQl8luj4E8wgI-21" value="Lane" style="text;html=1;strokeColor=none;fillColor=none;align=center;verticalAlign=middle;whiteSpace=wrap;rounded=0;labelBackgroundColor=none;fontSize=14;fontColor=#000000;opacity=80;" vertex="1" parent="1">
          <mxGeometry x="720" y="65" width="60" height="30" as="geometry" />
        </mxCell>
        <mxCell id="_D5-4NInQl8luj4E8wgI-22" value="Turns" style="text;html=1;strokeColor=none;fillColor=none;align=center;verticalAlign=middle;whiteSpace=wrap;rounded=0;labelBackgroundColor=none;fontSize=14;fontColor=#000000;opacity=80;" vertex="1" parent="1">
          <mxGeometry x="720" y="120" width="60" height="30" as="geometry" />
        </mxCell>
        <mxCell id="_D5-4NInQl8luj4E8wgI-25" value="Distance from car in front" style="text;html=1;strokeColor=none;fillColor=none;align=center;verticalAlign=middle;whiteSpace=wrap;rounded=0;labelBackgroundColor=none;fontSize=14;fontColor=#000000;opacity=80;" vertex="1" parent="1">
          <mxGeometry x="335" y="-80" width="120" height="40" as="geometry" />
        </mxCell>
        <mxCell id="_D5-4NInQl8luj4E8wgI-27" value="Lane centering" style="text;html=1;strokeColor=none;fillColor=none;align=center;verticalAlign=middle;whiteSpace=wrap;rounded=0;labelBackgroundColor=none;fontSize=14;fontColor=#000000;opacity=80;" vertex="1" parent="1">
          <mxGeometry x="485" y="-80" width="120" height="40" as="geometry" />
        </mxCell>
        <mxCell id="_D5-4NInQl8luj4E8wgI-32" style="edgeStyle=orthogonalEdgeStyle;rounded=0;orthogonalLoop=1;jettySize=auto;html=1;entryX=0;entryY=0.5;entryDx=0;entryDy=0;fontSize=14;fontColor=#000000;targetPerimeterSpacing=6;" edge="1" parent="1" source="_D5-4NInQl8luj4E8wgI-29" target="_D5-4NInQl8luj4E8wgI-31">
          <mxGeometry relative="1" as="geometry" />
        </mxCell>
        <mxCell id="_D5-4NInQl8luj4E8wgI-46" style="edgeStyle=orthogonalEdgeStyle;rounded=0;orthogonalLoop=1;jettySize=auto;html=1;entryX=0.5;entryY=0;entryDx=0;entryDy=0;fontSize=14;fontColor=#000000;targetPerimeterSpacing=6;" edge="1" parent="1" source="_D5-4NInQl8luj4E8wgI-29" target="_D5-4NInQl8luj4E8wgI-45">
          <mxGeometry relative="1" as="geometry" />
        </mxCell>
        <mxCell id="_D5-4NInQl8luj4E8wgI-29" value="Task analysis" style="ellipse;whiteSpace=wrap;html=1;labelBackgroundColor=none;fontSize=14;align=center;opacity=80;fillColor=#f8cecc;strokeColor=#b85450;" vertex="1" parent="1">
          <mxGeometry x="620" y="260" width="120" height="50" as="geometry" />
        </mxCell>
        <mxCell id="_D5-4NInQl8luj4E8wgI-35" style="edgeStyle=orthogonalEdgeStyle;rounded=0;orthogonalLoop=1;jettySize=auto;html=1;exitX=0.5;exitY=1;exitDx=0;exitDy=0;entryX=0.5;entryY=0;entryDx=0;entryDy=0;fontSize=14;fontColor=#000000;targetPerimeterSpacing=6;" edge="1" parent="1" source="_D5-4NInQl8luj4E8wgI-31" target="_D5-4NInQl8luj4E8wgI-34">
          <mxGeometry relative="1" as="geometry" />
        </mxCell>
        <mxCell id="_D5-4NInQl8luj4E8wgI-36" style="edgeStyle=orthogonalEdgeStyle;rounded=0;orthogonalLoop=1;jettySize=auto;html=1;exitX=0.5;exitY=0;exitDx=0;exitDy=0;entryX=0.5;entryY=1;entryDx=0;entryDy=0;fontSize=14;fontColor=#000000;targetPerimeterSpacing=6;" edge="1" parent="1" source="_D5-4NInQl8luj4E8wgI-31" target="_D5-4NInQl8luj4E8wgI-33">
          <mxGeometry relative="1" as="geometry" />
        </mxCell>
        <mxCell id="_D5-4NInQl8luj4E8wgI-31" value="Primary" style="rounded=1;whiteSpace=wrap;html=1;labelBackgroundColor=none;fontSize=14;align=center;opacity=80;fillColor=#fff2cc;strokeColor=#d6b656;" vertex="1" parent="1">
          <mxGeometry x="800" y="265" width="90" height="40" as="geometry" />
        </mxCell>
        <mxCell id="_D5-4NInQl8luj4E8wgI-38" style="edgeStyle=orthogonalEdgeStyle;rounded=0;orthogonalLoop=1;jettySize=auto;html=1;exitX=1;exitY=0.5;exitDx=0;exitDy=0;entryX=0;entryY=0.5;entryDx=0;entryDy=0;fontSize=14;fontColor=#000000;targetPerimeterSpacing=6;" edge="1" parent="1" source="_D5-4NInQl8luj4E8wgI-33" target="_D5-4NInQl8luj4E8wgI-37">
          <mxGeometry relative="1" as="geometry" />
        </mxCell>
        <mxCell id="_D5-4NInQl8luj4E8wgI-33" value="Lane keeping" style="text;html=1;strokeColor=none;fillColor=none;align=center;verticalAlign=middle;whiteSpace=wrap;rounded=0;labelBackgroundColor=none;fontSize=14;fontColor=#000000;opacity=80;" vertex="1" parent="1">
          <mxGeometry x="795" y="210" width="100" height="30" as="geometry" />
        </mxCell>
        <mxCell id="_D5-4NInQl8luj4E8wgI-34" value="Hazard monitoring" style="text;html=1;strokeColor=none;fillColor=none;align=center;verticalAlign=middle;whiteSpace=wrap;rounded=0;labelBackgroundColor=none;fontSize=14;fontColor=#000000;opacity=80;" vertex="1" parent="1">
          <mxGeometry x="780" y="340" width="130" height="30" as="geometry" />
        </mxCell>
        <mxCell id="_D5-4NInQl8luj4E8wgI-37" value="Time to Lane Crossing" style="text;html=1;strokeColor=none;fillColor=none;align=center;verticalAlign=middle;whiteSpace=wrap;rounded=0;labelBackgroundColor=none;fontSize=14;fontColor=#000000;opacity=80;" vertex="1" parent="1">
          <mxGeometry x="942.5" y="210" width="100" height="30" as="geometry" />
        </mxCell>
        <mxCell id="_D5-4NInQl8luj4E8wgI-39" style="edgeStyle=orthogonalEdgeStyle;rounded=0;orthogonalLoop=1;jettySize=auto;html=1;exitX=1;exitY=0.5;exitDx=0;exitDy=0;entryX=0;entryY=0.5;entryDx=0;entryDy=0;fontSize=14;fontColor=#000000;targetPerimeterSpacing=6;" edge="1" parent="1" target="_D5-4NInQl8luj4E8wgI-40">
          <mxGeometry relative="1" as="geometry">
            <mxPoint x="910" y="355" as="sourcePoint" />
          </mxGeometry>
        </mxCell>
        <mxCell id="_D5-4NInQl8luj4E8wgI-40" value="Time to Contact" style="text;html=1;strokeColor=none;fillColor=none;align=center;verticalAlign=middle;whiteSpace=wrap;rounded=0;labelBackgroundColor=none;fontSize=14;fontColor=#000000;opacity=80;" vertex="1" parent="1">
          <mxGeometry x="955" y="340" width="75" height="30" as="geometry" />
        </mxCell>
        <mxCell id="_D5-4NInQl8luj4E8wgI-57" style="edgeStyle=orthogonalEdgeStyle;rounded=0;orthogonalLoop=1;jettySize=auto;html=1;exitX=1;exitY=0.5;exitDx=0;exitDy=0;entryX=0;entryY=0.5;entryDx=0;entryDy=0;fontSize=14;fontColor=#000000;targetPerimeterSpacing=6;" edge="1" parent="1" source="_D5-4NInQl8luj4E8wgI-44" target="_D5-4NInQl8luj4E8wgI-56">
          <mxGeometry relative="1" as="geometry" />
        </mxCell>
        <mxCell id="_D5-4NInQl8luj4E8wgI-68" style="edgeStyle=orthogonalEdgeStyle;rounded=0;orthogonalLoop=1;jettySize=auto;html=1;exitX=0;exitY=0.5;exitDx=0;exitDy=0;entryX=1;entryY=0.5;entryDx=0;entryDy=0;fontSize=14;fontColor=#000000;targetPerimeterSpacing=6;" edge="1" parent="1" source="_D5-4NInQl8luj4E8wgI-44" target="_D5-4NInQl8luj4E8wgI-67">
          <mxGeometry relative="1" as="geometry" />
        </mxCell>
        <mxCell id="_D5-4NInQl8luj4E8wgI-78" style="edgeStyle=orthogonalEdgeStyle;rounded=0;orthogonalLoop=1;jettySize=auto;html=1;exitX=0;exitY=0.5;exitDx=0;exitDy=0;entryX=0.5;entryY=0;entryDx=0;entryDy=0;fontSize=14;fontColor=#000000;targetPerimeterSpacing=6;" edge="1" parent="1" source="_D5-4NInQl8luj4E8wgI-44" target="_D5-4NInQl8luj4E8wgI-75">
          <mxGeometry relative="1" as="geometry" />
        </mxCell>
        <mxCell id="_D5-4NInQl8luj4E8wgI-79" style="edgeStyle=orthogonalEdgeStyle;rounded=0;orthogonalLoop=1;jettySize=auto;html=1;exitX=1;exitY=0.5;exitDx=0;exitDy=0;entryX=0.5;entryY=0;entryDx=0;entryDy=0;fontSize=14;fontColor=#000000;targetPerimeterSpacing=6;" edge="1" parent="1" source="_D5-4NInQl8luj4E8wgI-44" target="_D5-4NInQl8luj4E8wgI-76">
          <mxGeometry relative="1" as="geometry" />
        </mxCell>
        <mxCell id="_D5-4NInQl8luj4E8wgI-44" value="Safety" style="ellipse;whiteSpace=wrap;html=1;labelBackgroundColor=none;fontSize=14;align=center;opacity=80;fontStyle=1;fillColor=#f8cecc;strokeColor=#b85450;" vertex="1" parent="1">
          <mxGeometry x="380" y="610" width="120" height="80" as="geometry" />
        </mxCell>
        <mxCell id="_D5-4NInQl8luj4E8wgI-48" style="edgeStyle=orthogonalEdgeStyle;rounded=0;orthogonalLoop=1;jettySize=auto;html=1;exitX=1;exitY=0.5;exitDx=0;exitDy=0;entryX=0;entryY=0.5;entryDx=0;entryDy=0;fontSize=14;fontColor=#000000;targetPerimeterSpacing=6;" edge="1" parent="1" source="_D5-4NInQl8luj4E8wgI-45" target="_D5-4NInQl8luj4E8wgI-47">
          <mxGeometry relative="1" as="geometry" />
        </mxCell>
        <mxCell id="_D5-4NInQl8luj4E8wgI-50" style="edgeStyle=orthogonalEdgeStyle;rounded=0;orthogonalLoop=1;jettySize=auto;html=1;exitX=0.5;exitY=1;exitDx=0;exitDy=0;entryX=0.5;entryY=0;entryDx=0;entryDy=0;fontSize=14;fontColor=#000000;targetPerimeterSpacing=6;" edge="1" parent="1" source="_D5-4NInQl8luj4E8wgI-45" target="_D5-4NInQl8luj4E8wgI-49">
          <mxGeometry relative="1" as="geometry" />
        </mxCell>
        <mxCell id="_D5-4NInQl8luj4E8wgI-52" style="edgeStyle=orthogonalEdgeStyle;rounded=0;orthogonalLoop=1;jettySize=auto;html=1;entryX=1;entryY=0.5;entryDx=0;entryDy=0;fontSize=14;fontColor=#000000;targetPerimeterSpacing=6;" edge="1" parent="1" source="_D5-4NInQl8luj4E8wgI-45" target="_D5-4NInQl8luj4E8wgI-51">
          <mxGeometry relative="1" as="geometry" />
        </mxCell>
        <mxCell id="_D5-4NInQl8luj4E8wgI-45" value="Secondary" style="rounded=1;whiteSpace=wrap;html=1;labelBackgroundColor=none;fontSize=14;align=center;opacity=80;fillColor=#fff2cc;strokeColor=#d6b656;" vertex="1" parent="1">
          <mxGeometry x="635" y="430" width="90" height="40" as="geometry" />
        </mxCell>
        <mxCell id="_D5-4NInQl8luj4E8wgI-47" value="Radio" style="text;html=1;strokeColor=none;fillColor=none;align=center;verticalAlign=middle;whiteSpace=wrap;rounded=0;labelBackgroundColor=none;fontSize=14;fontColor=#000000;opacity=80;" vertex="1" parent="1">
          <mxGeometry x="760" y="435" width="60" height="30" as="geometry" />
        </mxCell>
        <mxCell id="_D5-4NInQl8luj4E8wgI-49" value="Navigation" style="text;html=1;strokeColor=none;fillColor=none;align=center;verticalAlign=middle;whiteSpace=wrap;rounded=0;labelBackgroundColor=none;fontSize=14;fontColor=#000000;opacity=80;" vertex="1" parent="1">
          <mxGeometry x="630" y="500" width="100" height="30" as="geometry" />
        </mxCell>
        <mxCell id="_D5-4NInQl8luj4E8wgI-51" value="Talking" style="text;html=1;strokeColor=none;fillColor=none;align=center;verticalAlign=middle;whiteSpace=wrap;rounded=0;labelBackgroundColor=none;fontSize=14;fontColor=#000000;opacity=80;" vertex="1" parent="1">
          <mxGeometry x="534" y="435" width="60" height="30" as="geometry" />
        </mxCell>
        <mxCell id="_D5-4NInQl8luj4E8wgI-53" value="2 problematic groups:&lt;br&gt;&lt;b&gt;18-24, 65+&lt;/b&gt;" style="rounded=1;whiteSpace=wrap;html=1;labelBackgroundColor=none;fontSize=14;align=center;opacity=80;fillColor=#d5e8d4;strokeColor=#82b366;" vertex="1" parent="1">
          <mxGeometry x="845" y="780" width="120" height="60" as="geometry" />
        </mxCell>
        <mxCell id="_D5-4NInQl8luj4E8wgI-55" value="(90% of accidents is due to human error)" style="text;html=1;strokeColor=none;fillColor=none;align=center;verticalAlign=middle;whiteSpace=wrap;rounded=0;labelBackgroundColor=none;fontSize=14;fontColor=#000000;opacity=80;" vertex="1" parent="1">
          <mxGeometry x="300" y="690" width="280" height="30" as="geometry" />
        </mxCell>
        <mxCell id="_D5-4NInQl8luj4E8wgI-59" style="edgeStyle=orthogonalEdgeStyle;rounded=0;orthogonalLoop=1;jettySize=auto;html=1;exitX=1;exitY=0.5;exitDx=0;exitDy=0;entryX=0;entryY=0.5;entryDx=0;entryDy=0;fontSize=14;fontColor=#000000;targetPerimeterSpacing=6;" edge="1" parent="1" source="_D5-4NInQl8luj4E8wgI-56" target="_D5-4NInQl8luj4E8wgI-58">
          <mxGeometry relative="1" as="geometry" />
        </mxCell>
        <mxCell id="_D5-4NInQl8luj4E8wgI-63" style="edgeStyle=orthogonalEdgeStyle;rounded=0;orthogonalLoop=1;jettySize=auto;html=1;exitX=0.5;exitY=0;exitDx=0;exitDy=0;entryX=0.5;entryY=1;entryDx=0;entryDy=0;fontSize=14;fontColor=#000000;targetPerimeterSpacing=6;" edge="1" parent="1" source="_D5-4NInQl8luj4E8wgI-56" target="_D5-4NInQl8luj4E8wgI-61">
          <mxGeometry relative="1" as="geometry" />
        </mxCell>
        <mxCell id="_D5-4NInQl8luj4E8wgI-66" style="edgeStyle=orthogonalEdgeStyle;rounded=0;orthogonalLoop=1;jettySize=auto;html=1;exitX=0.5;exitY=1;exitDx=0;exitDy=0;entryX=0.5;entryY=0;entryDx=0;entryDy=0;fontSize=14;fontColor=#000000;targetPerimeterSpacing=6;" edge="1" parent="1" source="_D5-4NInQl8luj4E8wgI-56" target="_D5-4NInQl8luj4E8wgI-65">
          <mxGeometry relative="1" as="geometry" />
        </mxCell>
        <mxCell id="_D5-4NInQl8luj4E8wgI-56" value="Individual&lt;br&gt;factors" style="ellipse;whiteSpace=wrap;html=1;labelBackgroundColor=none;fontSize=14;align=center;opacity=80;fillColor=#fff2cc;strokeColor=#d6b656;" vertex="1" parent="1">
          <mxGeometry x="685" y="620" width="110" height="60" as="geometry" />
        </mxCell>
        <mxCell id="_D5-4NInQl8luj4E8wgI-60" style="edgeStyle=orthogonalEdgeStyle;rounded=0;orthogonalLoop=1;jettySize=auto;html=1;exitX=0.5;exitY=1;exitDx=0;exitDy=0;entryX=0.5;entryY=0;entryDx=0;entryDy=0;fontSize=14;fontColor=#000000;targetPerimeterSpacing=6;" edge="1" parent="1" source="_D5-4NInQl8luj4E8wgI-58" target="_D5-4NInQl8luj4E8wgI-53">
          <mxGeometry relative="1" as="geometry" />
        </mxCell>
        <mxCell id="_D5-4NInQl8luj4E8wgI-58" value="Age" style="rounded=1;whiteSpace=wrap;html=1;labelBackgroundColor=none;fontSize=14;align=center;opacity=80;fontStyle=0;fillColor=#fff2cc;strokeColor=#d6b656;" vertex="1" parent="1">
          <mxGeometry x="870" y="635" width="70" height="30" as="geometry" />
        </mxCell>
        <mxCell id="_D5-4NInQl8luj4E8wgI-61" value="Gender" style="rounded=1;whiteSpace=wrap;html=1;labelBackgroundColor=none;fontSize=14;align=center;opacity=80;fillColor=#fff2cc;strokeColor=#d6b656;" vertex="1" parent="1">
          <mxGeometry x="700" y="555" width="80" height="30" as="geometry" />
        </mxCell>
        <mxCell id="_D5-4NInQl8luj4E8wgI-65" value="Alcohol" style="rounded=1;whiteSpace=wrap;html=1;labelBackgroundColor=none;fontSize=14;align=center;opacity=80;fillColor=#fff2cc;strokeColor=#d6b656;" vertex="1" parent="1">
          <mxGeometry x="705" y="720" width="70" height="30" as="geometry" />
        </mxCell>
        <mxCell id="_D5-4NInQl8luj4E8wgI-73" style="edgeStyle=orthogonalEdgeStyle;rounded=0;orthogonalLoop=1;jettySize=auto;html=1;exitX=0;exitY=0.5;exitDx=0;exitDy=0;entryX=1;entryY=0.5;entryDx=0;entryDy=0;fontSize=14;fontColor=#000000;targetPerimeterSpacing=6;" edge="1" parent="1" source="_D5-4NInQl8luj4E8wgI-67" target="_D5-4NInQl8luj4E8wgI-72">
          <mxGeometry relative="1" as="geometry" />
        </mxCell>
        <mxCell id="_D5-4NInQl8luj4E8wgI-67" value="Attention" style="ellipse;whiteSpace=wrap;html=1;labelBackgroundColor=none;fontSize=14;align=center;opacity=80;fillColor=#fff2cc;strokeColor=#d6b656;" vertex="1" parent="1">
          <mxGeometry x="115" y="620" width="110" height="60" as="geometry" />
        </mxCell>
        <mxCell id="_D5-4NInQl8luj4E8wgI-69" value="Resource competition" style="text;html=1;strokeColor=none;fillColor=none;align=center;verticalAlign=middle;whiteSpace=wrap;rounded=0;labelBackgroundColor=none;fontSize=14;fontColor=#000000;opacity=80;" vertex="1" parent="1">
          <mxGeometry x="100" y="673" width="140" height="30" as="geometry" />
        </mxCell>
        <mxCell id="_D5-4NInQl8luj4E8wgI-72" value="P3 component in EEG" style="rounded=1;whiteSpace=wrap;html=1;labelBackgroundColor=none;fontSize=14;align=center;opacity=80;fillColor=#d5e8d4;strokeColor=#82b366;" vertex="1" parent="1">
          <mxGeometry x="-80" y="625" width="100" height="50" as="geometry" />
        </mxCell>
        <mxCell id="_D5-4NInQl8luj4E8wgI-74" value="Measures available resources" style="text;html=1;strokeColor=none;fillColor=none;align=center;verticalAlign=middle;whiteSpace=wrap;rounded=0;labelBackgroundColor=none;fontSize=14;fontColor=#000000;opacity=80;" vertex="1" parent="1">
          <mxGeometry x="-110" y="680" width="160" height="30" as="geometry" />
        </mxCell>
        <mxCell id="_D5-4NInQl8luj4E8wgI-105" style="edgeStyle=orthogonalEdgeStyle;rounded=0;orthogonalLoop=1;jettySize=auto;html=1;exitX=1;exitY=0.5;exitDx=0;exitDy=0;entryX=0;entryY=0.5;entryDx=0;entryDy=0;fontSize=14;fontColor=#000000;targetPerimeterSpacing=6;" edge="1" parent="1" source="_D5-4NInQl8luj4E8wgI-75" target="_D5-4NInQl8luj4E8wgI-94">
          <mxGeometry relative="1" as="geometry" />
        </mxCell>
        <mxCell id="_D5-4NInQl8luj4E8wgI-113" style="edgeStyle=orthogonalEdgeStyle;rounded=0;orthogonalLoop=1;jettySize=auto;html=1;exitX=0.5;exitY=1;exitDx=0;exitDy=0;entryX=0.5;entryY=0;entryDx=0;entryDy=0;fontSize=14;fontColor=#000000;targetPerimeterSpacing=6;" edge="1" parent="1" source="_D5-4NInQl8luj4E8wgI-75" target="_D5-4NInQl8luj4E8wgI-93">
          <mxGeometry relative="1" as="geometry" />
        </mxCell>
        <mxCell id="_D5-4NInQl8luj4E8wgI-115" style="edgeStyle=orthogonalEdgeStyle;rounded=0;orthogonalLoop=1;jettySize=auto;html=1;entryX=1;entryY=0.5;entryDx=0;entryDy=0;fontSize=14;fontColor=#000000;targetPerimeterSpacing=6;" edge="1" parent="1" source="_D5-4NInQl8luj4E8wgI-75" target="_D5-4NInQl8luj4E8wgI-80">
          <mxGeometry relative="1" as="geometry" />
        </mxCell>
        <mxCell id="_D5-4NInQl8luj4E8wgI-75" value="Visibility" style="ellipse;whiteSpace=wrap;html=1;labelBackgroundColor=none;fontSize=14;align=center;opacity=80;fillColor=#fff2cc;strokeColor=#d6b656;" vertex="1" parent="1">
          <mxGeometry x="225" y="880" width="120" height="60" as="geometry" />
        </mxCell>
        <mxCell id="_D5-4NInQl8luj4E8wgI-95" style="edgeStyle=orthogonalEdgeStyle;rounded=0;orthogonalLoop=1;jettySize=auto;html=1;exitX=0.5;exitY=1;exitDx=0;exitDy=0;entryX=0.5;entryY=0;entryDx=0;entryDy=0;fontSize=14;fontColor=#000000;targetPerimeterSpacing=6;" edge="1" parent="1" source="_D5-4NInQl8luj4E8wgI-76" target="_D5-4NInQl8luj4E8wgI-86">
          <mxGeometry relative="1" as="geometry" />
        </mxCell>
        <mxCell id="_D5-4NInQl8luj4E8wgI-98" style="edgeStyle=orthogonalEdgeStyle;rounded=0;orthogonalLoop=1;jettySize=auto;html=1;exitX=1;exitY=0.5;exitDx=0;exitDy=0;entryX=0;entryY=0.5;entryDx=0;entryDy=0;fontSize=14;fontColor=#000000;targetPerimeterSpacing=6;" edge="1" parent="1" source="_D5-4NInQl8luj4E8wgI-76" target="_D5-4NInQl8luj4E8wgI-88">
          <mxGeometry relative="1" as="geometry" />
        </mxCell>
        <mxCell id="_D5-4NInQl8luj4E8wgI-99" style="edgeStyle=orthogonalEdgeStyle;rounded=0;orthogonalLoop=1;jettySize=auto;html=1;exitX=0.5;exitY=1;exitDx=0;exitDy=0;entryX=1;entryY=0.5;entryDx=0;entryDy=0;fontSize=14;fontColor=#000000;targetPerimeterSpacing=6;" edge="1" parent="1" source="_D5-4NInQl8luj4E8wgI-76" target="_D5-4NInQl8luj4E8wgI-87">
          <mxGeometry relative="1" as="geometry" />
        </mxCell>
        <mxCell id="_D5-4NInQl8luj4E8wgI-76" value="Hazards" style="ellipse;whiteSpace=wrap;html=1;labelBackgroundColor=none;fontSize=14;align=center;opacity=80;fillColor=#fff2cc;strokeColor=#d6b656;" vertex="1" parent="1">
          <mxGeometry x="565" y="880" width="120" height="60" as="geometry" />
        </mxCell>
        <mxCell id="_D5-4NInQl8luj4E8wgI-116" style="edgeStyle=orthogonalEdgeStyle;rounded=0;orthogonalLoop=1;jettySize=auto;html=1;entryX=1;entryY=0.5;entryDx=0;entryDy=0;fontSize=14;fontColor=#000000;targetPerimeterSpacing=6;" edge="1" parent="1" source="_D5-4NInQl8luj4E8wgI-80" target="_D5-4NInQl8luj4E8wgI-85">
          <mxGeometry relative="1" as="geometry" />
        </mxCell>
        <mxCell id="_D5-4NInQl8luj4E8wgI-117" style="edgeStyle=orthogonalEdgeStyle;rounded=0;orthogonalLoop=1;jettySize=auto;html=1;entryX=1;entryY=0.5;entryDx=0;entryDy=0;fontSize=14;fontColor=#000000;targetPerimeterSpacing=6;" edge="1" parent="1" source="_D5-4NInQl8luj4E8wgI-80" target="_D5-4NInQl8luj4E8wgI-84">
          <mxGeometry relative="1" as="geometry" />
        </mxCell>
        <mxCell id="_D5-4NInQl8luj4E8wgI-118" style="edgeStyle=orthogonalEdgeStyle;rounded=0;orthogonalLoop=1;jettySize=auto;html=1;entryX=1;entryY=0.5;entryDx=0;entryDy=0;fontSize=14;fontColor=#000000;targetPerimeterSpacing=6;" edge="1" parent="1" source="_D5-4NInQl8luj4E8wgI-80" target="_D5-4NInQl8luj4E8wgI-82">
          <mxGeometry relative="1" as="geometry" />
        </mxCell>
        <mxCell id="_D5-4NInQl8luj4E8wgI-119" style="edgeStyle=orthogonalEdgeStyle;rounded=0;orthogonalLoop=1;jettySize=auto;html=1;entryX=1;entryY=0.5;entryDx=0;entryDy=0;fontSize=14;fontColor=#000000;targetPerimeterSpacing=6;" edge="1" parent="1" source="_D5-4NInQl8luj4E8wgI-80" target="_D5-4NInQl8luj4E8wgI-83">
          <mxGeometry relative="1" as="geometry" />
        </mxCell>
        <mxCell id="_D5-4NInQl8luj4E8wgI-80" value="Signage" style="rounded=1;whiteSpace=wrap;html=1;labelBackgroundColor=none;fontSize=14;align=center;opacity=80;fillColor=#fff2cc;strokeColor=#d6b656;" vertex="1" parent="1">
          <mxGeometry x="10" y="890" width="80" height="40" as="geometry" />
        </mxCell>
        <mxCell id="_D5-4NInQl8luj4E8wgI-82" value="Consistency" style="text;html=1;strokeColor=none;fillColor=none;align=center;verticalAlign=middle;whiteSpace=wrap;rounded=0;labelBackgroundColor=none;fontSize=14;fontColor=#000000;opacity=80;" vertex="1" parent="1">
          <mxGeometry x="-150" y="920" width="90" height="30" as="geometry" />
        </mxCell>
        <mxCell id="_D5-4NInQl8luj4E8wgI-83" value="Redundancy" style="text;html=1;strokeColor=none;fillColor=none;align=center;verticalAlign=middle;whiteSpace=wrap;rounded=0;labelBackgroundColor=none;fontSize=14;fontColor=#000000;opacity=80;" vertex="1" parent="1">
          <mxGeometry x="-160" y="980" width="100" height="30" as="geometry" />
        </mxCell>
        <mxCell id="_D5-4NInQl8luj4E8wgI-84" value="Cluttering" style="text;html=1;strokeColor=none;fillColor=none;align=center;verticalAlign=middle;whiteSpace=wrap;rounded=0;labelBackgroundColor=none;fontSize=14;fontColor=#000000;opacity=80;" vertex="1" parent="1">
          <mxGeometry x="-150" y="870" width="90" height="30" as="geometry" />
        </mxCell>
        <mxCell id="_D5-4NInQl8luj4E8wgI-85" value="Visibility" style="text;html=1;strokeColor=none;fillColor=none;align=center;verticalAlign=middle;whiteSpace=wrap;rounded=0;labelBackgroundColor=none;fontSize=14;fontColor=#000000;opacity=80;" vertex="1" parent="1">
          <mxGeometry x="-140" y="820" width="80" height="30" as="geometry" />
        </mxCell>
        <mxCell id="_D5-4NInQl8luj4E8wgI-101" style="edgeStyle=orthogonalEdgeStyle;rounded=0;orthogonalLoop=1;jettySize=auto;html=1;exitX=0.5;exitY=1;exitDx=0;exitDy=0;entryX=0.5;entryY=0;entryDx=0;entryDy=0;fontSize=14;fontColor=#000000;targetPerimeterSpacing=6;" edge="1" parent="1" source="_D5-4NInQl8luj4E8wgI-86" target="_D5-4NInQl8luj4E8wgI-100">
          <mxGeometry relative="1" as="geometry" />
        </mxCell>
        <mxCell id="_D5-4NInQl8luj4E8wgI-86" value="Fatigue" style="rounded=1;whiteSpace=wrap;html=1;labelBackgroundColor=none;fontSize=14;align=center;opacity=80;fillColor=#fff2cc;strokeColor=#d6b656;" vertex="1" parent="1">
          <mxGeometry x="802.5" y="1015" width="75" height="30" as="geometry" />
        </mxCell>
        <mxCell id="_D5-4NInQl8luj4E8wgI-120" style="edgeStyle=orthogonalEdgeStyle;rounded=0;orthogonalLoop=1;jettySize=auto;html=1;exitX=0;exitY=0.5;exitDx=0;exitDy=0;entryX=1;entryY=0.5;entryDx=0;entryDy=0;fontSize=14;fontColor=#000000;targetPerimeterSpacing=6;" edge="1" parent="1" source="_D5-4NInQl8luj4E8wgI-87" target="_D5-4NInQl8luj4E8wgI-112">
          <mxGeometry relative="1" as="geometry" />
        </mxCell>
        <mxCell id="_D5-4NInQl8luj4E8wgI-87" value="Speeding" style="rounded=1;whiteSpace=wrap;html=1;labelBackgroundColor=none;fontSize=14;align=center;opacity=80;fillColor=#fff2cc;strokeColor=#d6b656;" vertex="1" parent="1">
          <mxGeometry x="455" y="1040" width="90" height="30" as="geometry" />
        </mxCell>
        <mxCell id="_D5-4NInQl8luj4E8wgI-88" value="Overcorrection" style="rounded=1;whiteSpace=wrap;html=1;labelBackgroundColor=none;fontSize=14;align=center;opacity=80;fillColor=#fff2cc;strokeColor=#d6b656;" vertex="1" parent="1">
          <mxGeometry x="770" y="895" width="110" height="30" as="geometry" />
        </mxCell>
        <mxCell id="_D5-4NInQl8luj4E8wgI-89" value="Cognitive" style="text;html=1;strokeColor=none;fillColor=none;align=center;verticalAlign=middle;whiteSpace=wrap;rounded=0;labelBackgroundColor=none;fontSize=14;fontColor=#000000;opacity=80;" vertex="1" parent="1">
          <mxGeometry x="470" y="1070" width="60" height="30" as="geometry" />
        </mxCell>
        <mxCell id="_D5-4NInQl8luj4E8wgI-90" value="Perceptual" style="text;html=1;strokeColor=none;fillColor=none;align=center;verticalAlign=middle;whiteSpace=wrap;rounded=0;labelBackgroundColor=none;fontSize=14;fontColor=#000000;opacity=80;" vertex="1" parent="1">
          <mxGeometry x="460" y="1010" width="80" height="30" as="geometry" />
        </mxCell>
        <mxCell id="_D5-4NInQl8luj4E8wgI-91" value="Rumble strips" style="text;html=1;strokeColor=none;fillColor=none;align=center;verticalAlign=middle;whiteSpace=wrap;rounded=0;labelBackgroundColor=none;fontSize=14;fontColor=#000000;opacity=80;" vertex="1" parent="1">
          <mxGeometry x="710" y="1120" width="110" height="30" as="geometry" />
        </mxCell>
        <mxCell id="_D5-4NInQl8luj4E8wgI-92" value="Driver monitoring" style="text;html=1;strokeColor=none;fillColor=none;align=center;verticalAlign=middle;whiteSpace=wrap;rounded=0;labelBackgroundColor=none;fontSize=14;fontColor=#000000;opacity=80;" vertex="1" parent="1">
          <mxGeometry x="860" y="1120" width="130" height="30" as="geometry" />
        </mxCell>
        <mxCell id="_D5-4NInQl8luj4E8wgI-93" value="Illumination" style="rounded=1;whiteSpace=wrap;html=1;labelBackgroundColor=none;fontSize=14;align=center;opacity=80;fillColor=#fff2cc;strokeColor=#d6b656;" vertex="1" parent="1">
          <mxGeometry x="240" y="985" width="90" height="30" as="geometry" />
        </mxCell>
        <mxCell id="_D5-4NInQl8luj4E8wgI-94" value="Anthropometry" style="rounded=1;whiteSpace=wrap;html=1;labelBackgroundColor=none;fontSize=14;align=center;opacity=80;fillColor=#fff2cc;strokeColor=#d6b656;" vertex="1" parent="1">
          <mxGeometry x="414" y="895" width="120" height="30" as="geometry" />
        </mxCell>
        <mxCell id="_D5-4NInQl8luj4E8wgI-103" style="edgeStyle=orthogonalEdgeStyle;rounded=0;orthogonalLoop=1;jettySize=auto;html=1;exitX=0;exitY=0.5;exitDx=0;exitDy=0;entryX=0.5;entryY=0;entryDx=0;entryDy=0;fontSize=14;fontColor=#000000;targetPerimeterSpacing=6;" edge="1" parent="1" source="_D5-4NInQl8luj4E8wgI-100" target="_D5-4NInQl8luj4E8wgI-91">
          <mxGeometry relative="1" as="geometry" />
        </mxCell>
        <mxCell id="_D5-4NInQl8luj4E8wgI-104" style="edgeStyle=orthogonalEdgeStyle;rounded=0;orthogonalLoop=1;jettySize=auto;html=1;exitX=1;exitY=0.5;exitDx=0;exitDy=0;entryX=0.5;entryY=0;entryDx=0;entryDy=0;fontSize=14;fontColor=#000000;targetPerimeterSpacing=6;" edge="1" parent="1" source="_D5-4NInQl8luj4E8wgI-100" target="_D5-4NInQl8luj4E8wgI-92">
          <mxGeometry relative="1" as="geometry" />
        </mxCell>
        <mxCell id="_D5-4NInQl8luj4E8wgI-100" value="Solutions" style="text;html=1;strokeColor=none;fillColor=none;align=center;verticalAlign=middle;whiteSpace=wrap;rounded=0;labelBackgroundColor=none;fontSize=14;fontColor=#000000;opacity=80;" vertex="1" parent="1">
          <mxGeometry x="810" y="1070" width="60" height="30" as="geometry" />
        </mxCell>
        <mxCell id="_D5-4NInQl8luj4E8wgI-123" style="edgeStyle=orthogonalEdgeStyle;rounded=0;orthogonalLoop=1;jettySize=auto;html=1;exitX=0;exitY=0.5;exitDx=0;exitDy=0;entryX=0.5;entryY=0;entryDx=0;entryDy=0;fontSize=14;fontColor=#000000;targetPerimeterSpacing=6;" edge="1" parent="1" source="_D5-4NInQl8luj4E8wgI-112" target="_D5-4NInQl8luj4E8wgI-121">
          <mxGeometry relative="1" as="geometry" />
        </mxCell>
        <mxCell id="_D5-4NInQl8luj4E8wgI-124" style="edgeStyle=orthogonalEdgeStyle;rounded=0;orthogonalLoop=1;jettySize=auto;html=1;exitX=0.5;exitY=1;exitDx=0;exitDy=0;entryX=0.5;entryY=0;entryDx=0;entryDy=0;fontSize=14;fontColor=#000000;targetPerimeterSpacing=6;" edge="1" parent="1" source="_D5-4NInQl8luj4E8wgI-112" target="_D5-4NInQl8luj4E8wgI-122">
          <mxGeometry relative="1" as="geometry" />
        </mxCell>
        <mxCell id="_D5-4NInQl8luj4E8wgI-112" value="Solutions" style="text;html=1;strokeColor=none;fillColor=none;align=center;verticalAlign=middle;whiteSpace=wrap;rounded=0;labelBackgroundColor=none;fontSize=14;fontColor=#000000;opacity=80;" vertex="1" parent="1">
          <mxGeometry x="345" y="1040" width="60" height="30" as="geometry" />
        </mxCell>
        <mxCell id="_D5-4NInQl8luj4E8wgI-121" value="Cruise Control" style="text;html=1;strokeColor=none;fillColor=none;align=center;verticalAlign=middle;whiteSpace=wrap;rounded=0;labelBackgroundColor=none;fontSize=14;fontColor=#000000;opacity=80;" vertex="1" parent="1">
          <mxGeometry x="245" y="1090" width="60" height="30" as="geometry" />
        </mxCell>
        <mxCell id="_D5-4NInQl8luj4E8wgI-122" value="Fines" style="text;html=1;strokeColor=none;fillColor=none;align=center;verticalAlign=middle;whiteSpace=wrap;rounded=0;labelBackgroundColor=none;fontSize=14;fontColor=#000000;opacity=80;" vertex="1" parent="1">
          <mxGeometry x="345" y="1090" width="60" height="30" as="geometry" />
        </mxCell>
      </root>
    </mxGraphModel>
  </diagram>
</mxfile>
